<?xml version="1.0" standalone="no"?>
<!DOCTYPE svg PUBLIC "-//W3C//DTD SVG 20010904//EN"
 "http://www.w3.org/TR/2001/REC-SVG-20010904/DTD/svg10.dtd">
<svg version="1.0" xmlns="http://www.w3.org/2000/svg"
 width="2667.000000pt" height="2667.000000pt" viewBox="0 0 2667.000000 2667.000000"
 preserveAspectRatio="xMidYMid meet">
<metadata>
Created by potrace 1.14, written by Peter Selinger 2001-2017
</metadata>
<g transform="translate(0.000000,2667.000000) scale(0.100000,-0.100000)"
fill="#000000" stroke="none">
<path d="M9730 16479 l0 -730 -57 48 c-167 141 -335 204 -553 206 -63 1 -142
-2 -175 -6 -56 -7 -190 -41 -224 -56 -226 -104 -350 -206 -465 -381 -85 -128
-150 -288 -171 -425 -13 -77 -17 -133 -16 -225 1 -389 177 -725 484 -924 234
-153 520 -200 792 -130 119 31 261 117 345 211 l40 45 0 -111 0 -111 365 0
365 0 0 1660 0 1660 -365 0 -365 0 0 -731z m-315 -1116 c248 -72 394 -338 318
-582 -34 -111 -130 -226 -231 -277 -148 -75 -344 -65 -477 26 -249 170 -270
535 -43 734 118 103 286 141 433 99z"/>
<path d="M11201 17125 c-192 -54 -311 -226 -298 -429 15 -223 214 -392 440
-373 130 11 261 96 322 209 144 264 -35 588 -333 604 -50 3 -96 -1 -131 -11z"/>
<path d="M4528 17045 c-2 -1 -22 -5 -46 -9 -110 -15 -231 -110 -285 -223 -29
-62 -32 -76 -32 -168 0 -92 3 -106 32 -167 126 -267 469 -317 667 -98 66 73
100 169 98 276 -3 202 -165 372 -370 387 -33 3 -62 4 -64 2z"/>
<path d="M17020 16250 c0 -243 -3 -311 -12 -309 -7 1 -61 1 -120 0 l-108 -1 0
-300 0 -300 28 -1 c15 -1 69 -1 120 -1 l92 1 0 -724 0 -725 364 0 365 0 0 708
c0 389 0 714 1 723 0 15 20 17 168 17 92 0 184 1 205 1 l37 1 0 300 0 300 -27
1 c-16 0 -108 1 -205 1 l-178 0 -1 161 c0 89 0 228 0 310 l1 147 -365 0 -365
0 0 -310z"/>
<path d="M19360 15999 c-52 -11 -104 -21 -115 -23 -52 -10 -185 -61 -270 -103
-161 -80 -285 -182 -390 -322 -140 -186 -208 -387 -207 -617 1 -230 46 -398
160 -589 20 -33 38 -62 41 -65 4 -3 18 -21 32 -40 64 -86 203 -202 319 -267
123 -69 303 -126 465 -148 146 -20 378 -11 530 20 445 92 783 396 884 793 40
156 44 387 9 517 -5 22 -12 50 -14 63 -11 61 -84 215 -142 302 -47 71 -171
196 -248 251 -171 123 -335 189 -584 235 -19 3 -111 7 -205 9 -134 2 -190 -2
-265 -16z m359 -625 c84 -19 151 -57 215 -121 188 -187 187 -477 0 -668 -108
-109 -273 -154 -439 -120 -59 12 -154 67 -207 119 -61 61 -125 176 -135 246
-18 115 -6 200 41 295 99 200 306 298 525 249z"/>
<path d="M13075 15998 c-93 -12 -105 -15 -175 -33 -432 -113 -736 -454 -805
-905 -9 -60 -6 -267 5 -338 50 -317 257 -606 545 -759 175 -93 348 -135 555
-135 158 0 254 17 422 76 l93 33 1 311 1 311 -44 -30 c-225 -155 -517 -142
-690 31 -97 98 -142 218 -138 371 3 130 47 237 133 325 132 135 328 182 520
125 65 -20 172 -70 197 -92 5 -5 12 -9 16 -9 3 0 6 139 6 308 l0 309 -41 18
c-70 30 -145 54 -224 71 -87 18 -287 25 -377 12z"/>
<path d="M14909 15994 c-374 -56 -684 -331 -807 -714 -39 -123 -52 -208 -53
-355 0 -126 5 -178 31 -290 100 -430 444 -753 855 -801 300 -35 530 33 712
210 l63 62 0 -108 0 -108 365 0 365 0 0 1025 0 1025 -62 1 c-92 1 -619 1 -645
0 -21 -1 -22 -6 -25 -96 l-3 -95 -30 28 c-127 116 -261 184 -418 213 -91 16
-250 18 -348 3z m476 -629 c236 -62 385 -300 341 -545 -12 -63 -75 -175 -132
-233 -218 -219 -600 -160 -739 114 -53 104 -66 260 -30 364 48 138 164 252
295 291 30 9 60 18 65 19 29 9 148 3 200 -10z"/>
<path d="M6737 15979 c-82 -9 -192 -41 -262 -76 -65 -33 -116 -73 -192 -151
l-61 -63 1 125 2 126 -30 1 c-144 3 -689 -1 -693 -5 -4 -4 -7 -1891 -3 -2018
l1 -28 360 0 c336 0 360 1 361 18 0 9 1 280 3 602 2 322 6 594 9 605 3 11 10
35 16 53 29 95 108 182 196 214 83 30 230 31 296 1 59 -26 115 -76 140 -124
51 -100 52 -114 55 -739 1 -322 3 -595 3 -607 l1 -23 360 0 360 0 1 23 c4 153
0 1381 -6 1431 -9 92 -38 203 -69 264 -58 115 -188 236 -323 302 -127 62 -341
90 -526 69z"/>
<path d="M22505 15974 c-99 -17 -177 -47 -261 -99 -77 -48 -178 -143 -226
-212 -16 -24 -31 -43 -33 -43 -2 0 -3 72 -2 160 2 154 1 160 -18 161 -117 4
-697 0 -702 -5 -5 -4 -8 -1870 -4 -2018 l1 -28 360 0 c336 0 360 1 361 18 0 9
1 231 1 492 1 261 5 491 9 510 4 19 10 50 14 68 16 90 69 192 136 260 115 116
369 153 568 81 31 -11 64 -22 74 -26 16 -5 17 16 17 341 0 269 -3 346 -12 348
-57 7 -226 2 -283 -8z"/>
<path d="M10953 15937 c-4 -7 -7 -1952 -4 -2034 1 -10 80 -13 361 -13 336 0
360 1 361 18 0 9 1 470 2 1025 l2 1007 -25 1 c-188 5 -693 2 -697 -4z"/>
<path d="M4187 15932 c-2 -4 -3 -1364 -3 -3022 l1 -3015 378 -3 c354 -2 377
-1 378 15 0 10 1 1370 1 3023 l1 3005 -376 2 c-207 1 -378 -1 -380 -5z"/>
<path d="M14219 13183 c-1 -35 -1 -3264 0 -3280 1 -10 80 -13 361 -13 198 0
360 3 361 8 0 4 2 275 3 602 2 327 6 602 8 610 3 8 8 29 13 45 20 77 80 159
146 201 86 54 257 67 351 26 89 -39 159 -127 174 -221 3 -14 7 -33 11 -41 3
-8 8 -283 9 -610 2 -327 3 -601 3 -607 1 -10 80 -13 361 -13 281 0 360 3 361
13 0 6 1 325 1 707 0 612 -2 706 -17 785 -55 295 -238 500 -500 560 -100 23
-126 27 -235 30 -271 8 -458 -60 -619 -225 l-68 -71 0 758 0 758 -361 3 -362
2 -1 -27z"/>
<path d="M10450 13122 c-113 -38 -195 -109 -251 -218 -32 -65 -34 -73 -34
-173 0 -99 2 -111 32 -171 108 -222 357 -301 574 -184 236 129 275 468 74 653
-105 96 -269 135 -395 93z"/>
<path d="M16950 12251 l0 -310 -97 1 c-54 0 -108 0 -120 -1 l-23 -1 0 -302 0
-303 120 2 120 2 0 -724 0 -725 363 0 364 0 1 708 c0 389 1 714 1 724 1 14 20
16 179 16 97 0 189 1 205 1 l27 1 0 300 0 300 -22 1 c-13 0 -105 0 -205 -1
l-183 -1 -1 23 c0 13 -1 152 -1 311 l-1 287 -364 0 -363 0 0 -309z"/>
<path d="M8989 12016 c-2 -2 -31 -6 -64 -10 -113 -12 -204 -37 -312 -86 -219
-101 -349 -254 -399 -469 -37 -156 -15 -360 48 -462 91 -145 228 -219 540
-288 230 -51 280 -76 299 -143 22 -82 -33 -164 -126 -190 -149 -41 -405 25
-612 158 -31 20 -59 32 -63 27 -4 -4 -65 -119 -134 -254 -98 -191 -123 -249
-114 -257 24 -20 174 -91 263 -126 176 -68 340 -98 530 -100 158 -1 225 6 373
39 12 3 60 19 105 36 271 98 457 302 503 552 12 66 11 214 -2 276 -17 79 -63
181 -103 223 -17 18 -31 36 -31 39 0 13 -107 89 -171 122 -83 43 -224 86 -359
110 -53 10 -155 39 -180 52 -41 21 -61 51 -65 94 -4 55 26 99 90 131 94 47
287 27 450 -45 70 -31 77 -31 91 -2 5 12 58 115 117 229 59 113 107 208 107
211 0 6 -68 33 -140 56 -121 37 -178 49 -330 70 -63 8 -304 14 -311 7z"/>
<path d="M19115 12005 c-346 -54 -580 -222 -670 -482 -30 -85 -39 -152 -38
-266 1 -141 41 -253 118 -336 106 -113 214 -159 575 -242 161 -37 211 -72 215
-156 5 -103 -86 -166 -240 -164 -44 0 -89 2 -100 5 -91 21 -117 28 -168 45
-63 22 -241 113 -270 139 -10 9 -21 12 -26 6 -8 -8 -94 -173 -216 -412 -26
-51 -46 -95 -44 -96 12 -11 196 -99 259 -124 261 -103 545 -132 830 -87 19 3
85 21 145 40 274 85 457 255 532 493 25 81 36 250 21 338 -16 96 -71 203 -140
275 -107 112 -229 166 -509 229 -222 50 -256 69 -264 150 -5 52 26 98 87 128
94 47 284 30 447 -41 l80 -34 47 91 c26 50 69 134 97 186 27 52 54 102 58 110
27 51 38 85 32 91 -10 9 -217 75 -268 85 -22 5 -42 9 -45 9 -19 5 -81 16 -115
21 -83 12 -352 11 -430 -1z"/>
<path d="M12248 11994 c-2 -1 -15 -5 -28 -7 -334 -63 -579 -246 -750 -562 -17
-33 -32 -62 -31 -65 1 -3 -10 -32 -23 -66 -22 -55 -45 -148 -61 -249 -8 -52
-8 -255 0 -320 52 -422 327 -740 733 -846 56 -15 119 -21 232 -24 138 -4 182
-1 268 20 12 3 31 7 43 10 75 16 213 96 317 184 l54 45 -3 -140 c-1 -76 -8
-164 -15 -195 -48 -210 -203 -331 -431 -338 -151 -5 -268 42 -329 131 -18 26
-34 53 -36 59 -4 12 -803 17 -815 5 -9 -8 25 -120 57 -190 57 -121 163 -251
281 -341 102 -79 324 -183 429 -202 14 -2 41 -8 60 -13 19 -5 58 -12 85 -16
28 -3 59 -8 70 -10 34 -7 286 -6 355 1 52 6 136 21 215 39 178 41 395 157 523
280 165 158 236 324 268 626 4 30 7 522 8 1093 l1 1037 -30 1 c-38 1 -677 1
-687 0 -5 -1 -8 -49 -8 -107 l0 -107 -47 48 c-89 89 -230 169 -343 195 -30 7
-69 16 -87 20 -29 7 -269 11 -275 4z m447 -624 c71 -23 137 -61 187 -108 269
-251 163 -679 -196 -792 -22 -7 -76 -12 -122 -12 -132 0 -244 48 -334 142
-113 117 -155 304 -106 466 42 135 188 270 335 309 57 15 183 12 236 -5z"/>
<path d="M6725 11974 c-169 -28 -286 -86 -403 -203 l-79 -80 1 125 c1 117 0
124 -19 125 -177 6 -699 -1 -704 -9 -4 -7 -6 -1991 -2 -2034 1 -5 163 -8 361
-8 281 0 360 3 361 13 0 6 2 280 3 607 2 507 5 602 18 642 39 116 118 202 215
234 85 27 222 25 288 -5 91 -41 149 -116 175 -231 10 -40 14 -211 16 -645 1
-324 3 -596 3 -603 1 -10 77 -12 363 -10 l362 3 -1 680 c0 374 -3 717 -7 762
-16 182 -70 306 -186 423 -108 110 -224 174 -374 206 -93 20 -290 24 -391 8z"/>
<path d="M10213 11937 c-4 -7 -7 -1931 -4 -2029 1 -17 25 -18 361 -18 l360 0
0 23 c1 35 1 1958 1 1997 l-1 35 -356 0 c-196 0 -358 -4 -361 -8z"/>
</g>
</svg>
